<svg width="172" height="25" viewBox="0 0 172 25" fill="none" xmlns="http://www.w3.org/2000/svg">
<path d="M8.89062 12.9688V19.6562C8.89062 20.9492 8.96875 21.7617 9.125 22.0938C9.28906 22.4297 9.57031 22.6953 9.96875 22.8906C10.3633 23.0898 11.1094 23.1875 12.2031 23.1875V23.8438H0V23.1875C1.10156 23.1875 1.84766 23.0898 2.23438 22.8906C2.62891 22.6836 2.90625 22.418 3.0625 22.0938C3.21875 21.7617 3.29688 20.9492 3.29688 19.6562V4.1875C3.29688 2.89844 3.21875 2.08594 3.0625 1.75C2.90625 1.41797 2.625 1.15234 2.21875 0.953125C1.82031 0.746094 1.08203 0.640625 0 0.640625V0H11.0781C13.9609 0 16.0703 0.199219 17.4062 0.59375C18.7383 0.992188 19.8281 1.72656 20.6719 2.79688C21.5156 3.87109 21.9375 5.13281 21.9375 6.57812C21.9375 8.33984 21.3047 9.79297 20.0469 10.9375C19.2344 11.668 18.1016 12.2148 16.6562 12.5781L22.3906 20.6406C23.1406 21.6836 23.6719 22.3359 23.9844 22.5938C24.4609 22.9609 25.0195 23.1562 25.6562 23.1875V23.8438H18.1406L10.4531 12.9688H8.89062ZM8.89062 1.28125V11.7344H9.89062C11.5234 11.7344 12.7422 11.5859 13.5469 11.2812C14.3594 10.9805 14.9922 10.4375 15.4531 9.65625C15.9219 8.875 16.1562 7.85938 16.1562 6.60938C16.1562 4.79688 15.7266 3.46094 14.875 2.59375C14.0312 1.71875 12.6641 1.28125 10.7812 1.28125H8.89062Z" fill="white"/>
<path d="M51.2319 0V15.6875L55.0601 11.9375C55.8413 11.1797 56.3257 10.6328 56.5132 10.2969C56.7085 9.95312 56.8101 9.62109 56.8101 9.29688C56.8101 8.98438 56.6772 8.72656 56.4194 8.51562C56.1694 8.29688 55.6694 8.14062 54.9194 8.04688V7.40625H62.2788V8.04688C61.5796 8.08984 60.9663 8.26172 60.4351 8.5625C59.9038 8.85547 58.8726 9.75 57.3413 11.25L55.5444 13.0156L59.4194 18.6719C60.9702 20.9766 61.896 22.2656 62.2007 22.5469C62.5952 22.9453 63.0952 23.1641 63.7007 23.2031V23.8438H55.2163V23.2031C55.5913 23.2031 55.8608 23.1367 56.0288 23C56.1929 22.8555 56.2788 22.7031 56.2788 22.5469C56.2788 22.2773 56.0327 21.7773 55.5444 21.0469L52.2944 16.2812L51.2319 17.3125V20.2812C51.2319 21.5312 51.3452 22.3125 51.5757 22.625C51.814 22.9375 52.2983 23.1328 53.0288 23.2031V23.8438H44.5444V23.2031C45.2319 23.1406 45.7202 22.9219 46.0132 22.5469C46.2085 22.2891 46.3101 21.5312 46.3101 20.2812V3.5625C46.3101 2.32422 46.1929 1.55469 45.9663 1.25C45.7358 0.9375 45.2632 0.734375 44.5444 0.640625V0H51.2319Z" fill="white"/>
<path d="M73.6536 21.4219C71.6536 23.1953 69.8567 24.0781 68.2629 24.0781C67.3254 24.0781 66.5442 23.7734 65.9192 23.1562C65.302 22.5312 64.9973 21.7617 64.9973 20.8438C64.9973 19.5859 65.5325 18.4531 66.6067 17.4531C67.6887 16.4531 70.0364 15.1211 73.6536 13.4531V11.7969C73.6536 10.5586 73.5833 9.77734 73.4504 9.45312C73.3254 9.13281 73.0676 8.85156 72.6848 8.60938C72.3098 8.37109 71.8879 8.25 71.4192 8.25C70.6575 8.25 70.0325 8.41797 69.5442 8.75C69.2395 8.96875 69.0911 9.21875 69.0911 9.5C69.0911 9.74219 69.2512 10.043 69.5754 10.4062C70.0208 10.918 70.2473 11.4062 70.2473 11.875C70.2473 12.4492 70.0325 12.9375 69.6067 13.3438C69.177 13.7422 68.6223 13.9375 67.9348 13.9375C67.1926 13.9375 66.5754 13.7188 66.0754 13.2812C65.5754 12.8359 65.3254 12.3086 65.3254 11.7031C65.3254 10.8594 65.6575 10.0586 66.3254 9.29688C66.9895 8.52734 67.9231 7.9375 69.1223 7.53125C70.3176 7.11719 71.5637 6.90625 72.8567 6.90625C74.4075 6.90625 75.6379 7.24219 76.5442 7.90625C77.4583 8.5625 78.052 9.28125 78.3254 10.0625C78.4817 10.5547 78.5598 11.6836 78.5598 13.4531V19.8281C78.5598 20.5781 78.5911 21.0547 78.6536 21.25C78.7161 21.4492 78.802 21.5938 78.9192 21.6875C79.0325 21.7812 79.1692 21.8281 79.3254 21.8281C79.6262 21.8281 79.9348 21.6094 80.2473 21.1719L80.7786 21.5938C80.1926 22.4609 79.5911 23.0898 78.9661 23.4844C78.3411 23.8789 77.6262 24.0781 76.8254 24.0781C75.8879 24.0781 75.1536 23.8594 74.6223 23.4219C74.0989 22.9766 73.7786 22.3086 73.6536 21.4219ZM73.6536 20.1406V14.625C72.2356 15.4609 71.1848 16.3516 70.4973 17.2969C70.0364 17.9336 69.8098 18.5742 69.8098 19.2188C69.8098 19.7617 70.0012 20.2344 70.3879 20.6406C70.677 20.9648 71.0911 21.125 71.6223 21.125C72.2043 21.125 72.8801 20.7969 73.6536 20.1406Z" fill="white"/>
<path d="M99.354 0L111.12 14.7812V4.53125C111.12 3.10547 110.917 2.14062 110.51 1.64062C109.948 0.953125 108.999 0.621094 107.667 0.640625V0H115.557V0.640625C114.545 0.777344 113.862 0.949219 113.51 1.15625C113.167 1.35547 112.893 1.6875 112.698 2.15625C112.51 2.61719 112.417 3.40625 112.417 4.53125V24.3906H111.823L95.6978 4.53125V19.6875C95.6978 21.0625 96.0103 21.9922 96.6353 22.4688C97.2603 22.9492 97.979 23.1875 98.7915 23.1875H99.354V23.8438H90.9009V23.1875C92.2134 23.1797 93.1235 22.9141 93.6353 22.3906C94.1548 21.8594 94.4165 20.9609 94.4165 19.6875V2.85938L93.9009 2.23438C93.4009 1.60156 92.9517 1.18359 92.5571 0.984375C92.1704 0.789062 91.6196 0.671875 90.9009 0.640625V0H99.354Z" fill="white"/>
<path d="M131.536 15.0312H122.521C122.622 17.2109 123.2 18.9336 124.255 20.2031C125.068 21.1719 126.04 21.6562 127.177 21.6562C127.872 21.6562 128.509 21.4648 129.083 21.0781C129.665 20.6836 130.286 19.9766 130.943 18.9531L131.536 19.3438C130.65 21.1562 129.665 22.4453 128.583 23.2031C127.497 23.9609 126.247 24.3438 124.833 24.3438C122.396 24.3438 120.552 23.4023 119.302 21.5156C118.29 20.0078 117.786 18.1328 117.786 15.8906C117.786 13.1523 118.525 10.9688 120.005 9.34375C121.493 7.71875 123.232 6.90625 125.224 6.90625C126.888 6.90625 128.333 7.58984 129.552 8.95312C130.779 10.3203 131.443 12.3438 131.536 15.0312ZM127.208 13.8594C127.208 11.9766 127.103 10.6797 126.896 9.96875C126.697 9.26172 126.38 8.73047 125.943 8.375C125.7 8.15625 125.372 8.04688 124.958 8.04688C124.353 8.04688 123.853 8.35156 123.458 8.95312C122.771 9.99609 122.427 11.4219 122.427 13.2344V13.8594H127.208Z" fill="white"/>
<path d="M149.898 24.3438L145.398 12.2656L140.976 24.3438H140.069L135.694 12.4062C135.038 10.5938 134.48 9.41406 134.023 8.85938C133.73 8.48438 133.28 8.21484 132.679 8.04688V7.40625H140.976V8.04688C140.413 8.04688 140.026 8.13281 139.819 8.29688C139.609 8.46484 139.507 8.65234 139.507 8.85938C139.507 9.05859 139.694 9.65625 140.069 10.6562L142.476 17.0781L144.804 10.6562L144.616 10.2344C144.273 9.35156 143.964 8.78906 143.694 8.54688C143.433 8.30859 143.026 8.14062 142.476 8.04688V7.40625H150.898V8.04688C150.241 8.08984 149.823 8.18359 149.648 8.32812C149.468 8.47656 149.382 8.68359 149.382 8.95312C149.382 9.20312 149.554 9.77344 149.898 10.6562L152.226 17.0781L154.335 11.1719C154.636 10.3203 154.788 9.74219 154.788 9.4375C154.788 8.98047 154.671 8.64844 154.444 8.4375C154.226 8.23047 153.792 8.10156 153.148 8.04688V7.40625H158.023V8.04688C157.48 8.12109 157.046 8.3125 156.726 8.625C156.413 8.9375 156.007 9.82031 155.507 11.2656L150.898 24.3438H149.898Z" fill="white"/>
<path d="M170.002 6.9375L170.267 12.5469H169.658C168.947 10.8906 168.209 9.76172 167.439 9.15625C166.666 8.54297 165.9 8.23438 165.142 8.23438C164.662 8.23438 164.252 8.39844 163.908 8.71875C163.572 9.03125 163.408 9.40234 163.408 9.82812C163.408 10.1406 163.521 10.4492 163.752 10.75C164.127 11.2305 165.174 12.0547 166.892 13.2188C168.619 14.3867 169.756 15.375 170.299 16.1875C170.849 17 171.127 17.9141 171.127 18.9219C171.127 19.8398 170.896 20.7344 170.439 21.6094C169.978 22.4844 169.334 23.1641 168.502 23.6406C167.666 24.1094 166.744 24.3438 165.736 24.3438C164.955 24.3438 163.908 24.0938 162.595 23.5938C162.24 23.4688 162.002 23.4062 161.877 23.4062C161.49 23.4062 161.166 23.6992 160.908 24.2812H160.33L160.049 18.375H160.642C161.174 19.9297 161.896 21.0898 162.814 21.8594C163.728 22.6328 164.599 23.0156 165.424 23.0156C165.986 23.0156 166.443 22.8438 166.799 22.5C167.162 22.1562 167.345 21.7344 167.345 21.2344C167.345 20.6719 167.166 20.1875 166.814 19.7812C166.459 19.375 165.674 18.7578 164.455 17.9219C162.662 16.6719 161.502 15.7188 160.97 15.0625C160.197 14.1055 159.814 13.0469 159.814 11.8906C159.814 10.6211 160.252 9.47656 161.127 8.45312C162.002 7.42188 163.267 6.90625 164.924 6.90625C165.806 6.90625 166.666 7.125 167.502 7.5625C167.814 7.74219 168.072 7.82812 168.283 7.82812C168.49 7.82812 168.658 7.78906 168.783 7.70312C168.916 7.60938 169.127 7.35547 169.408 6.9375H170.002Z" fill="white"/>
<path d="M36.3606 6.91822C37.7864 7.37916 38.97 8.17604 39.9075 9.30885C40.8528 10.4456 41.3801 11.801 41.4856 13.3713C41.5872 14.9338 41.3176 16.5276 40.6731 18.1526C39.7551 20.4768 38.3919 22.2307 36.5794 23.4182C34.3919 24.8557 32.0325 25.1682 29.5012 24.3557C27.0325 23.5432 25.4739 22.051 24.8294 19.887C24.1926 17.7112 24.3215 15.4807 25.22 13.1995C26.1575 10.8479 27.6497 9.01979 29.7044 7.7151C31.7551 6.4026 33.9739 6.13697 36.3606 6.91822ZM35.9387 8.16822C35.345 7.97291 34.7395 8.0276 34.1262 8.3401C33.5208 8.6526 32.884 9.45729 32.22 10.7463C31.5637 12.0393 30.7669 13.8674 29.8294 16.2307C29.3294 17.4807 28.9465 18.676 28.6887 19.8088C28.4778 20.6956 28.5012 21.4182 28.7512 21.9807C29.0012 22.551 29.3958 22.926 29.9387 23.1057C30.47 23.2698 30.97 23.2659 31.4387 23.0901C32.0637 22.8401 32.5872 22.387 33.0169 21.7307C33.6926 20.6917 34.7044 18.4768 36.0481 15.0901C36.8372 13.0901 37.2669 11.6917 37.3294 10.887C37.3997 10.0745 37.2864 9.42604 36.9856 8.93385C36.7864 8.58229 36.4387 8.32447 35.9387 8.16822Z" fill="#FF5C00"/>
</svg>
